<?xml version="1.0" encoding="UTF-8"?>
<!DOCTYPE svg PUBLIC "-//W3C//DTD SVG 1.1//EN" "http://www.w3.org/Graphics/SVG/1.1/DTD/svg11.dtd">
<!-- Creator: CorelDRAW 2020 (64-Bit) -->
<svg xmlns="http://www.w3.org/2000/svg" xml:space="preserve" width="53.04mm" height="65.08mm" version="1.1" style="shape-rendering:geometricPrecision; text-rendering:geometricPrecision; image-rendering:optimizeQuality; fill-rule:evenodd; clip-rule:evenodd"
viewBox="0 0 5304 6508"
 xmlns:xlink="http://www.w3.org/1999/xlink"
 xmlns:xodm="http://www.corel.com/coreldraw/odm/2003">
 <defs>
  <style type="text/css">
   <![CDATA[
    .fil8 {fill:#FEFEFE;fill-rule:nonzero}
    .fil2 {fill:#FCE6E6;fill-rule:nonzero}
    .fil10 {fill:#FDD6BA;fill-rule:nonzero}
    .fil5 {fill:#EBD2D3;fill-rule:nonzero}
    .fil3 {fill:#E5E4E4;fill-rule:nonzero}
    .fil11 {fill:#D8B49F;fill-rule:nonzero}
    .fil0 {fill:#A65D5B;fill-rule:nonzero}
    .fil4 {fill:#9A5959;fill-rule:nonzero}
    .fil1 {fill:#844A48;fill-rule:nonzero}
    .fil7 {fill:#62BBE5;fill-rule:nonzero}
    .fil6 {fill:#5D97BC;fill-rule:nonzero}
    .fil9 {fill:#3E3743;fill-rule:nonzero}
   ]]>
  </style>
 </defs>
 <g id="Layer_x0020_1">
  <metadata id="CorelCorpID_0Corel-Layer"/>
  <g id="_2399556524336">
   <path class="fil0" d="M3386.84 4420.68c-299.23,-163.2 -217.63,-952.19 -217.63,-952.19l-448.14 28.9 0 -28.79 -47.94 14.39 -47.94 -14.39 0 28.79 -448.13 -28.9c0,0 81.59,788.99 -217.63,952.19 -299.23,163.23 -2067.38,244.82 -1876.95,2067.38l5181.35 0c190.39,-1822.56 -1577.77,-1904.15 -1876.99,-2067.38z"/>
   <path class="fil1" d="M2114.23 4217.16c357.96,-53.34 715.64,-108.41 1073.11,-165.14 -50.27,-272.02 -18.13,-583.53 -18.13,-583.53l-448.14 28.9 0 -28.79 -47.94 14.39 -47.94 -14.39 0 28.79 -448.13 -28.9c0,0 47.23,458.44 -62.83,748.67z"/>
   <path class="fil2" d="M3763.29 4495.99c-160.59,419.14 -587.98,718.96 -1090.16,718.96 -502.18,0 -929.57,-299.82 -1090.15,-718.96 -616.34,169.02 -1699.85,531.04 -1547.21,1992.07l5274.73 0c152.64,-1461.03 -930.88,-1823.05 -1547.21,-1992.07z"/>
   <path class="fil3" d="M5310.5 6488.06l-46.67 0 0 0 46.67 0c0.1,-0.71 0.14,-1.34 0.21,-2.05 -0.07,0.67 -0.14,1.38 -0.21,2.05z"/>
   <polygon class="fil4" points="5263.83,6488.06 581.84,6488.06 5263.83,6488.06 "/>
   <path class="fil3" d="M5310.82 6485.27c0.03,-0.53 0.07,-0.81 0.14,-1.34 -0.07,0.46 -0.11,0.88 -0.14,1.34zm0.21 -2.22c0.03,-0.35 0.07,-0.81 0.1,-1.16 -0.03,0.42 -0.07,0.74 -0.1,1.16zm0.21 -2.08c0.03,-0.35 0.1,-0.81 0.14,-1.2 -0.04,0.39 -0.11,0.81 -0.14,1.2zm0.21 -2.12c0.04,-0.35 0.07,-0.74 0.11,-1.09 -0.04,0.35 -0.07,0.7 -0.11,1.09zm0.21 -2.04c0.04,-0.39 0.07,-0.82 0.11,-1.17 -0.04,0.42 -0.07,0.74 -0.11,1.17zm0.21 -2.09c0.04,-0.35 0.07,-0.77 0.11,-1.12 -0.04,0.35 -0.07,0.74 -0.11,1.12zm0.22 -2.04c0.03,-0.35 0.07,-0.78 0.1,-1.13 -0.03,0.35 -0.07,0.78 -0.1,1.13zm0.21 -2.15c0.03,-0.29 0.07,-0.71 0.1,-0.96 -0.03,0.32 -0.07,0.6 -0.1,0.96zm0.21 -2.05c0,-0.28 0.03,-0.67 0.07,-0.92 -0.04,0.32 -0.07,0.57 -0.07,0.92zm0.18 -2.12c0.03,-0.28 0.07,-0.53 0.07,-0.77 0,0.28 -0.04,0.49 -0.07,0.77zm0.21 -2.01c0.03,-0.28 0.03,-0.56 0.07,-0.84 -0.04,0.24 -0.07,0.6 -0.07,0.84zm0.17 -2.08c0.04,-0.18 0.07,-0.46 0.07,-0.63 -0.03,0.24 -0.03,0.38 -0.07,0.63zm0.21 -2.04l0 -0.15c0,0.07 0,0.11 0,0.15zm0.36 -3.6c0,-0.18 0,-0.21 0.03,-0.39 -0.03,0.14 -0.03,0.28 -0.03,0.39zm0.17 -2.08c0,-0.08 0.04,-0.18 0.04,-0.29 0,0.11 -0.04,0.21 -0.04,0.29zm0.18 -1.77c0,-0.17 0.04,-0.39 0.04,-0.56 0,0.21 -0.04,0.35 -0.04,0.56zm0.18 -1.94c0,-0.18 0.03,-0.46 0.03,-0.63 0,0.21 -0.03,0.42 -0.03,0.63zm0.17 -2.01c0,-0.18 0.04,-0.49 0.07,-0.67 -0.03,0.25 -0.07,0.42 -0.07,0.67zm0.18 -2.05c0.03,-0.28 0.03,-0.31 0.07,-0.56 -0.04,0.21 -0.04,0.35 -0.07,0.56zm0.18 -2.08c0.03,-0.17 0.03,-0.31 0.07,-0.49 -0.04,0.14 -0.04,0.35 -0.07,0.49zm0.17 -2.01c0.04,-0.17 0.04,-0.24 0.07,-0.42 -0.03,0.14 -0.03,0.25 -0.07,0.42zm0.18 -1.97c0.03,-0.25 0.03,-0.29 0.07,-0.53 -0.04,0.17 -0.04,0.35 -0.07,0.53zm0.18 -2.08c0.03,-0.08 0.03,-0.18 0.03,-0.25 0,0.07 0,0.17 -0.03,0.25zm0.21 -2.05l0 0z"/>
   <path class="fil5" d="M5310.5 6488.06l-4728.66 0c708.19,-174.7 1412.12,-366.4 2107.34,-587.83 741.61,-236.22 1539.1,-403.9 2200.28,-831.71 286.66,287.72 482.17,715.22 425.98,1368.07l0 0c-0.07,0.6 -0.11,1.16 -0.18,1.8 0,0.07 0,0.17 -0.03,0.25 -0.04,0.49 -0.08,1.05 -0.11,1.55 -0.04,0.24 -0.04,0.28 -0.07,0.53 -0.04,0.49 -0.07,1.05 -0.11,1.55 -0.03,0.18 -0.03,0.25 -0.07,0.42 -0.03,0.5 -0.07,1.03 -0.1,1.52 -0.04,0.18 -0.04,0.32 -0.07,0.49 -0.04,0.5 -0.07,1.03 -0.11,1.52 -0.04,0.25 -0.04,0.28 -0.07,0.56 -0.04,0.43 -0.07,0.92 -0.11,1.38 -0.03,0.18 -0.07,0.49 -0.07,0.67 -0.03,0.46 -0.07,0.92 -0.14,1.38 0,0.17 -0.03,0.45 -0.03,0.63 -0.04,0.46 -0.11,0.92 -0.14,1.38 0,0.17 -0.04,0.39 -0.04,0.56 -0.07,0.5 -0.11,0.99 -0.14,1.48 0,0.11 -0.04,0.21 -0.04,0.29 -0.07,0.6 -0.1,1.12 -0.14,1.69 -0.03,0.18 -0.03,0.21 -0.03,0.39 -0.14,1.16 -0.25,2.33 -0.36,3.45l0 0.15c-0.03,0.45 -0.1,0.98 -0.14,1.41 0,0.17 -0.03,0.45 -0.07,0.63 -0.03,0.42 -0.07,0.81 -0.1,1.24 -0.04,0.28 -0.04,0.56 -0.07,0.84 -0.04,0.43 -0.07,0.81 -0.14,1.24 0,0.24 -0.04,0.49 -0.07,0.77 -0.04,0.36 -0.08,0.81 -0.11,1.2 -0.04,0.25 -0.07,0.64 -0.07,0.92 -0.04,0.32 -0.11,0.74 -0.11,1.09 -0.03,0.25 -0.07,0.67 -0.1,0.96 -0.04,0.31 -0.07,0.67 -0.11,1.02 -0.03,0.35 -0.07,0.78 -0.1,1.13 -0.04,0.35 -0.08,0.56 -0.11,0.92 -0.04,0.35 -0.07,0.77 -0.11,1.12 -0.03,0.29 -0.07,0.64 -0.1,0.92 -0.04,0.35 -0.07,0.78 -0.11,1.17 -0.03,0.28 -0.07,0.63 -0.1,0.95 -0.04,0.35 -0.07,0.74 -0.11,1.09 -0.03,0.32 -0.03,0.6 -0.07,0.92 -0.04,0.39 -0.11,0.85 -0.14,1.2 -0.04,0.28 -0.07,0.63 -0.11,0.92 -0.03,0.35 -0.07,0.81 -0.1,1.16 -0.04,0.28 -0.07,0.56 -0.07,0.88 -0.07,0.53 -0.11,0.81 -0.14,1.34 -0.04,0.25 -0.08,0.5 -0.11,0.74 -0.07,0.71 -0.11,1.34 -0.21,2.05z"/>
   <path class="fil6" d="M3867.64 4525.45l0 1962.61 1442.86 0c144.39,-1381.76 -816.75,-1780.4 -1442.86,-1962.61z"/>
   <path class="fil6" d="M1468.75 4528.31c-626.28,183.55 -1576.59,585.29 -1432.98,1959.75l1432.98 0 0 -1959.75z"/>
   <path class="fil7" d="M1486.03 4528.31l0 1959.75c0,0 -723.18,-1232.89 -687.9,-1656.22 35.28,-423.37 617.35,-448.28 687.9,-303.53z"/>
   <path class="fil7" d="M3831.12 4528.31l0 1959.75c0,0 723.2,-1232.89 687.92,-1656.22 -35.28,-423.37 -617.36,-448.28 -687.92,-303.53z"/>
   <path class="fil1" d="M1796.94 2313.64c-88.16,-273.51 -296.94,-210.19 -316.48,-203.59 -20.5,2.4 -236.29,34.43 -199,319.41 37.5,286.63 203.83,441.99 359.76,396.34 160.51,-25.43 244.41,-236.99 155.72,-512.16z"/>
   <path class="fil1" d="M3557.37 2313.64c88.16,-273.51 296.93,-210.19 316.48,-203.59 20.49,2.4 236.29,34.43 199,319.41 -37.5,286.63 -203.8,441.99 -359.77,396.34 -160.51,-25.43 -244.4,-236.99 -155.71,-512.16z"/>
   <path class="fil0" d="M1583.05 1899.3c109.25,-1199.12 1020.87,-1131.96 1106.84,-1122.92 85.97,-9.04 997.58,-76.2 1106.84,1122.92 109.89,1206.26 -427.39,1994.04 -1106.84,1950.72 -679.45,43.32 -1216.73,-744.46 -1106.84,-1950.72z"/>
   <path class="fil1" d="M2847.09 2039.92c15.17,55 26.84,110.42 37.39,165.98 10.44,55.53 19.26,111.27 27.13,167.11 4.16,27.91 7.09,55.95 10.69,83.89 3.67,27.94 6.45,55.99 9.14,84.07 5.89,56.02 10.01,112.29 13.33,168.63l0.92 15.17 -10.94 6.74c-35.91,22.15 -72.35,43.49 -109.11,64.38 -37.08,20.42 -74.05,41.03 -112.64,59.23 30.9,-29.42 63.46,-56.48 95.84,-83.72 32.74,-26.74 65.8,-53.02 99.38,-78.52l-10.02 21.87c-9.1,-55.71 -17.35,-111.48 -23.88,-167.47 -3.49,-27.97 -6.91,-55.95 -9.42,-84.03 -2.61,-28.08 -5.93,-56.05 -7.94,-84.17 -4.55,-56.23 -8.11,-112.54 -10.09,-169.02 -1.87,-56.51 -2.57,-113.13 0.22,-170.14z"/>
   <path class="fil8" d="M3154.64 3070.52c-217.03,210.97 -584.66,199.29 -863.11,11.29l863.11 -11.29z"/>
   <path class="fil9" d="M3549.57 1951.02c0,0 -9.49,-5.26 -26.1,-14.46 -8.08,-4.41 -17.89,-9.78 -29.11,-15.95 -11,-5.82 -23.42,-12.38 -37,-19.54 -14.01,-6 -27.98,-14.08 -43.68,-20.22 -7.58,-3.38 -15.38,-6.84 -23.35,-10.4 -8.01,-2.93 -16.23,-5.93 -24.59,-8.97 -16.23,-7.19 -33.94,-9.84 -50.8,-15.8 -17.46,-1.8 -34.64,-8.47 -52.11,-7.76l-26 -2.12c-8.53,1.03 -17.1,1.31 -25.68,1.77 -17.35,-0.71 -33.48,5.75 -50.23,7.79 -16.69,2.65 -31.68,10.73 -47.38,14.89l-11.61 3.6 -10.55 5.33c-7.16,3.35 -14.11,6.59 -20.77,9.7 -13.23,6.56 -26.82,11.32 -37.05,18.45 -10.51,6.59 -20.49,11.78 -28.71,16.26 -16.48,8.93 -27.02,13.58 -27.02,13.58 0,0 4.19,-10.02 13.47,-26.81 4.69,-8.32 10.34,-18.77 17.78,-30.06 6.56,-12.13 16.97,-23.21 28.79,-35.24 12.2,-11.46 23.21,-27.34 40.5,-37.36 16.86,-10.3 33.55,-24.27 54.5,-32.03 10.34,-4.2 21.13,-7.97 32.1,-11.82 10.76,-4.62 22.37,-6.59 34.26,-7.94 11.82,-1.62 23.78,-3.45 35.84,-4.58 12,0.14 24.1,1.02 36.16,1.69 24.48,0.5 47.1,8.61 69.78,14.15 10.9,3.91 21.31,8.61 31.64,13.12 10.48,4.2 20.32,9.1 29.32,15.1 9.17,5.68 18.24,10.97 26.78,16.72 7.97,6.32 15.8,12.49 23.42,18.52 15.42,11.61 27.09,25.9 38.81,37.57 21.94,25.02 37.07,48.02 46,65.2 9.28,16.93 12.59,27.62 12.59,27.62z"/>
   <path class="fil9" d="M2414.02 1951.02c0,0 -9.49,-5.26 -26.11,-14.46 -8.08,-4.41 -17.85,-9.78 -29.1,-15.95 -11.01,-5.82 -23.43,-12.38 -36.97,-19.54 -14.05,-6 -28.02,-14.08 -43.68,-20.22 -7.62,-3.38 -15.42,-6.84 -23.35,-10.4 -8.05,-2.93 -16.27,-5.93 -24.63,-8.97 -16.22,-7.19 -33.93,-9.84 -50.76,-15.8 -17.5,-1.8 -34.68,-8.47 -52.14,-7.76l-26 -2.12c-8.54,1.03 -17.11,1.31 -25.65,1.77 -17.39,-0.71 -33.51,5.75 -50.27,7.79 -16.69,2.65 -31.68,10.73 -47.38,14.89l-11.57 3.6 -10.58 5.33c-7.16,3.35 -14.11,6.59 -20.78,9.7 -13.23,6.56 -26.81,11.32 -37.01,18.45 -10.51,6.59 -20.53,11.78 -28.71,16.26 -16.48,8.93 -27.06,13.58 -27.06,13.58 0,0 4.2,-10.02 13.48,-26.81 4.69,-8.32 10.33,-18.77 17.78,-30.06 6.56,-12.13 16.96,-23.21 28.78,-35.24 12.21,-11.46 23.21,-27.34 40.5,-37.36 16.86,-10.3 33.55,-24.27 54.5,-32.03 10.34,-4.2 21.14,-7.97 32.11,-11.82 10.79,-4.62 22.4,-6.59 34.25,-7.94 11.82,-1.62 23.78,-3.45 35.84,-4.58 12.03,0.14 24.1,1.02 36.16,1.69 24.49,0.5 47.1,8.61 69.82,14.15 10.86,3.91 21.27,8.61 31.61,13.12 10.48,4.2 20.35,9.1 29.31,15.1 9.18,5.68 18.28,10.97 26.78,16.72 8.01,6.32 15.8,12.49 23.42,18.52 15.46,11.61 27.13,25.9 38.81,37.57 21.94,25.02 37.08,48.02 46,65.2 9.28,16.93 12.6,27.62 12.6,27.62z"/>
   <path class="fil9" d="M2378 2385.54c0,0 -2.47,-9.74 -8.01,-26.04 -5.54,-16.26 -14.15,-39.23 -27.59,-64.35 -13.62,-24.9 -32.63,-52 -59.12,-71.75 -13.09,-9.98 -28.08,-17.92 -44.35,-22.86 -8.01,-2.82 -16.19,-5.47 -25.04,-6.03 -8.65,-1.17 -17.19,-3 -26.29,-2.08 -8.39,0.31 -19.08,-0.78 -25.61,0.45 -9.17,1.77 -20.67,2.19 -27.76,5.01 -14.32,4.66 -30.62,10.13 -42.94,20.39 -13.19,9.04 -23.38,21.42 -32.56,33.69 -8.25,13.02 -15.31,26.29 -20.49,39.41 -10.23,26.32 -15.42,50.31 -18.45,67.2 -3,16.94 -3.88,26.96 -3.88,26.96 0,0 -2.68,-9.67 -4.48,-27.24 -1.63,-17.53 -2.69,-43.14 3.59,-73.76 3.04,-15.31 8.29,-31.75 16.51,-48.41 8.96,-16.08 19.8,-33.58 36.41,-46.74 15.59,-14.14 35.03,-24.55 57.61,-31.25 11.22,-3.85 19.68,-3.96 29.7,-6.14 12.84,-2.26 22.09,-1.13 33.34,-1.7 10.76,-0.63 21.59,1.63 32.39,3.43 10.86,1.16 21.27,4.62 31.53,8.46 10.59,2.93 19.97,8.43 29.11,14.04 9.56,4.91 17.32,12.1 25.22,18.66 30.91,27.42 48.09,61.64 57.68,90.74 9.84,29.39 12.63,54.79 13.65,72.32 0.89,17.6 -0.17,27.59 -0.17,27.59z"/>
   <path class="fil9" d="M3398.44 2369.06c0,0 -2.47,-9.74 -8.01,-26.03 -5.53,-16.27 -14.14,-39.23 -27.58,-64.35 -13.62,-24.91 -32.63,-52 -59.13,-71.72 -13.09,-9.98 -28.08,-17.96 -44.34,-22.9 -8.05,-2.82 -16.2,-5.43 -25.05,-6.03 -8.64,-1.16 -17.22,-2.96 -26.28,-2.08 -8.4,0.35 -19.09,-0.74 -25.61,0.46 -9.18,1.76 -20.68,2.22 -27.77,5.01 -14.32,4.69 -30.65,10.12 -42.97,20.39 -13.19,9.03 -23.35,21.41 -32.52,33.69 -8.26,13.02 -15.35,26.32 -20.5,39.44 -10.23,26.32 -15.41,50.27 -18.45,67.17 -3,16.93 -3.88,26.95 -3.88,26.95 0,0 -2.68,-9.66 -4.48,-27.23 -1.66,-17.5 -2.68,-43.15 3.6,-73.73 3.03,-15.31 8.29,-31.79 16.51,-48.4 8.96,-16.13 19.79,-33.59 36.41,-46.75 15.59,-14.18 35.03,-24.59 57.6,-31.29 11.19,-3.81 19.65,-3.95 29.71,-6.1 12.84,-2.26 22.08,-1.13 33.34,-1.73 10.72,-0.6 21.59,1.66 32.38,3.42 10.87,1.2 21.27,4.62 31.54,8.5 10.55,2.93 19.97,8.4 29.1,14.04 9.56,4.87 17.29,12.1 25.23,18.63 30.9,27.41 48.08,61.63 57.68,90.77 9.84,29.35 12.63,54.75 13.65,72.28 0.88,17.64 -0.18,27.59 -0.18,27.59z"/>
   <path class="fil10" d="M3844.11 974.78c-61.49,-245.96 -208.21,-308.12 -278.56,-323.89 -40.53,-633.62 -1733.76,-749.76 -1755.77,-628.61 -23.53,129.36 599.72,341.03 599.72,341.03 0,0 -1117.14,-293.97 -1058.33,-35.28 47.76,210.15 499,187.5 666.68,171.63 -235.76,29.38 -1041.79,158.82 -678.47,522.18 29.74,29.7 62.06,55.03 96.03,77.15 -33.83,450.46 99.8,1510.35 99.8,1510.35l94.05 0 -35.28 -729.09c182.28,-36.44 265.61,-468.35 293.9,-660.86 308.61,4.41 618.7,-100.36 733.5,-143.79 -69.18,32.21 -178.33,105.91 -59.02,216.68 121.78,113.06 558.59,-24.7 777.8,-104.07 40.33,171.73 169.9,653.45 362.91,692.04l-35.28 729.09 94.01 0c0,0 164.64,-1305.28 82.31,-1634.56z"/>
   <path class="fil11" d="M3844.11 974.78c-61.49,-245.96 -208.21,-308.12 -278.56,-323.89 -7.41,-115.81 -70.2,-214.27 -167.74,-297.21 -52.67,429.72 -367.14,795.02 -766.24,971.86 171.77,41.74 520.25,-69.1 708.59,-137.33 40.33,171.73 169.9,653.45 362.91,692.04l-35.28 729.09 94.01 0c0,0 164.64,-1305.28 82.31,-1634.56z"/>
  </g>
 </g>
</svg>
